<svg width="1008" height="436" viewBox="0 0 1008 436" fill="none" xmlns="http://www.w3.org/2000/svg">
<path d="M88.3027 64.2738C88.3027 66.9138 88.3027 69.5538 88.3027 72.2738C89.038 72.2529 89.7732 72.2319 90.5308 72.2103C93.9129 72.1264 97.2949 72.0749 100.678 72.0238C101.834 71.9903 102.99 71.9568 104.182 71.9223C114.115 71.81 122.357 73.6459 129.771 80.5707C135.964 87.4587 138.572 94.593 138.498 103.86C138.495 104.562 138.492 105.263 138.489 105.986C138.478 108.207 138.453 110.428 138.428 112.649C138.418 114.163 138.409 115.677 138.4 117.192C138.38 120.886 138.341 124.579 138.303 128.274C133.023 128.274 127.743 128.274 122.303 128.274C122.247 125.832 122.247 125.832 122.189 123.34C122.124 121.172 122.057 119.004 121.99 116.836C121.956 115.232 121.956 115.232 121.922 113.596C121.671 106.128 121.327 98.5499 116.053 92.8363C109.919 89.3515 103.77 88.9159 96.8652 88.6488C96.0383 88.6101 95.2114 88.5715 94.3594 88.5316C92.3408 88.4383 90.3218 88.355 88.3027 88.2738C88.3027 90.9138 88.3027 93.5538 88.3027 96.2738C84.5768 96.8552 82.4604 97.0944 79.3188 94.8676C77.2459 92.9055 75.2954 90.8764 73.3652 88.7738C72.6814 88.0584 71.9975 87.343 71.293 86.6059C69.6126 84.8433 67.9508 83.0665 66.3027 81.2738C68.3102 76.9014 71.1624 73.938 74.4902 70.5238C75.0426 69.9218 75.595 69.3198 76.1641 68.6996C80.1018 64.6658 82.4319 63.5278 88.3027 64.2738Z" fill="#2D3B66"/>
<path d="M172.303 32.2732C176.029 31.6917 178.145 31.4526 181.287 33.6794C183.36 35.6415 185.31 37.6706 187.24 39.7732C187.924 40.4886 188.608 41.204 189.312 41.9411C190.993 43.7037 192.655 45.4805 194.303 47.2732C192.295 51.6455 189.443 54.609 186.115 58.0232C185.563 58.6251 185.011 59.2271 184.441 59.8474C181.285 63.0812 180.041 64.1997 175.377 64.6638C174.362 64.5349 173.348 64.406 172.303 64.2732C172.303 61.6332 172.303 58.9932 172.303 56.2732C156.508 55.9956 156.508 55.9956 142.865 62.5232C139.517 68.4166 138.874 74.6413 138.303 81.2732C137.333 80.4069 136.364 79.5407 135.365 78.6482C131.267 75.1212 126.852 72.1821 122.303 69.2732C122.943 60.3164 125.959 53.7615 132.303 47.2732C138.593 42.5714 144.617 39.999 152.576 40.0778C154.307 40.0875 154.307 40.0875 156.072 40.0974C157.262 40.1141 158.452 40.1309 159.678 40.1482C160.891 40.1572 162.104 40.1662 163.354 40.1755C166.337 40.199 169.32 40.2318 172.303 40.2732C172.303 37.6332 172.303 34.9932 172.303 32.2732Z" fill="#2D3B66"/>
<path d="M129.302 0.273438C133.675 2.28091 136.638 5.13305 140.052 8.46094C140.654 9.0133 141.256 9.56566 141.877 10.1348C145.11 13.2916 146.229 14.5356 146.693 19.1992C146.564 20.2137 146.435 21.2282 146.302 22.2734C143.662 22.2734 141.022 22.2734 138.302 22.2734C138.407 23.2866 138.511 24.2998 138.619 25.3438C139.39 35.9609 139.39 35.9609 136.545 39.3945C134.24 40.8359 134.24 40.8359 131.955 41.9023C128.315 43.6552 128.315 43.6552 122.302 49.2734C122.302 40.3634 122.302 31.4534 122.302 22.2734C119.662 22.2734 117.022 22.2734 114.302 22.2734C113.721 18.5475 113.482 16.4311 115.709 13.2896C117.671 11.2166 119.7 9.26613 121.802 7.33594C122.518 6.65209 123.233 5.96824 123.97 5.26367C125.733 3.58334 127.51 1.92151 129.302 0.273438Z" fill="#2D3B66"/>
<path d="M498.118 0.0078125C499.005 0.00523438 499.892 0.00265625 500.806 0C501.734 0.00773438 502.662 0.0154688 503.618 0.0234375C504.546 0.0157031 505.474 0.00796875 506.431 0C507.761 0.00386719 507.761 0.00386719 509.118 0.0078125C509.933 0.0100684 510.747 0.0123242 511.587 0.0146484C513.618 0.273438 513.618 0.273438 515.618 2.27344C516.084 4.83211 516.453 7.32032 516.743 9.89844C516.829 10.6048 516.916 11.3112 517.005 12.0391C517.217 13.7829 517.418 15.5281 517.618 17.2734C518.505 17.4178 519.392 17.5622 520.306 17.7109C523.618 18.2734 523.618 18.2734 526.216 19.0508C528.721 19.5308 528.721 19.5308 530.864 17.8398C531.587 17.1786 532.311 16.5173 533.056 15.8359C535.616 13.4957 537.081 12.381 540.505 11.6953C544.931 12.5173 546.962 14.7692 549.993 17.9609C550.538 18.4914 551.084 19.0218 551.645 19.5684C553.911 21.8821 555.482 23.6604 556.192 26.8594C555.235 30.8822 552.616 33.5211 550.052 36.6758C548.19 40.0486 548.666 41.6041 549.618 45.2734C549.804 46.2222 549.989 47.1709 550.181 48.1484C550.397 49.2003 550.397 49.2003 550.618 50.2734C551.343 50.3224 552.067 50.3714 552.813 50.4219C553.78 50.4966 554.747 50.5714 555.743 50.6484C557.17 50.7529 557.17 50.7529 558.626 50.8594C561.81 51.3 564.604 52.1733 567.618 53.2734C567.705 56.7316 567.758 60.1895 567.806 63.6484C567.831 64.6333 567.856 65.6181 567.882 66.6328C567.896 68.0443 567.896 68.0443 567.911 69.4844C567.935 70.7883 567.935 70.7883 567.959 72.1187C567.846 72.8297 567.734 73.5408 567.618 74.2734C564.078 76.6332 561.627 76.8594 557.431 77.3984C556.158 77.566 554.886 77.7336 553.575 77.9062C552.111 78.088 552.111 78.088 550.618 78.2734C549.125 82.7524 548.269 85.7217 549.618 90.2734C551.106 92.6225 552.751 94.7834 554.438 96.9922C555.618 99.2734 555.618 99.2734 555.657 101.656C554.157 105.434 551.73 107.82 548.868 110.648C548.342 111.207 547.816 111.765 547.274 112.34C543.376 116.248 543.376 116.248 540.056 116.359C537.169 115.073 534.89 113.426 532.368 111.523C528.463 108.829 528.463 108.829 523.903 108.48C521.672 109.252 519.667 110.105 517.618 111.273C517.497 112.333 517.376 113.393 517.251 114.484C517.082 115.872 516.913 117.26 516.743 118.648C516.664 119.347 516.586 120.046 516.505 120.766C515.845 126.047 515.845 126.047 513.618 128.273C511.587 128.532 511.587 128.532 509.118 128.539C508.231 128.542 507.344 128.544 506.431 128.547C505.502 128.539 504.574 128.531 503.618 128.523C502.69 128.531 501.762 128.539 500.806 128.547C499.475 128.543 499.475 128.543 498.118 128.539C497.303 128.537 496.489 128.535 495.649 128.532C493.618 128.273 493.618 128.273 491.618 126.273C491.152 123.715 490.783 121.227 490.493 118.648C490.407 117.942 490.32 117.236 490.231 116.508C490.019 114.764 489.818 113.019 489.618 111.273C486.305 109.645 483.318 108.54 479.618 108.273C476.669 109.712 474.435 111.413 471.942 113.539C469.238 115.557 468.016 116.419 464.618 116.273C461.993 114.575 459.912 112.449 457.743 110.211C457.137 109.637 456.531 109.062 455.907 108.471C451.64 104.17 451.64 104.17 451.54 100.09C452.627 97.251 453.728 95.5232 455.743 93.2734C458.316 90.1323 458.316 90.1323 458.556 86.0859C458.246 85.1578 457.937 84.2297 457.618 83.2734C457.271 81.6096 456.935 79.9433 456.618 78.2734C455.154 78.0917 455.154 78.0917 453.661 77.9062C452.389 77.7387 451.116 77.5711 449.806 77.3984C448.541 77.236 447.276 77.0736 445.974 76.9062C442.618 76.2734 442.618 76.2734 439.618 74.2734C439.278 72.1187 439.278 72.1187 439.325 69.4844C439.335 68.5434 439.344 67.6023 439.354 66.6328C439.38 65.648 439.405 64.6631 439.431 63.6484C439.444 62.6559 439.458 61.6633 439.472 60.6406C439.507 58.1844 439.556 55.7292 439.618 53.2734C443.63 51.8092 447.236 50.9599 451.493 50.6484C452.46 50.5737 453.427 50.4989 454.423 50.4219C455.147 50.3729 455.872 50.3239 456.618 50.2734C456.961 48.6087 457.292 46.9415 457.618 45.2734C457.875 44.2847 458.131 43.296 458.395 42.2773C458.685 38.3745 457.613 37.2029 455.181 34.2109C453.177 31.7285 451.784 29.972 451.044 26.8594C451.916 22.9318 454.453 20.6756 457.243 17.9609C457.765 17.4112 458.287 16.8614 458.825 16.2949C461.482 13.6547 462.977 12.3925 466.731 11.6953C471.032 12.5565 473.209 14.9476 476.372 17.8398C478.515 19.5308 478.515 19.5308 481.02 19.0508C481.878 18.7943 482.735 18.5377 483.618 18.2734C485.617 17.934 487.617 17.5992 489.618 17.2734C489.8 15.684 489.8 15.684 489.985 14.0625C490.154 12.6744 490.323 11.2864 490.493 9.89844C490.572 9.19977 490.65 8.50109 490.731 7.78125C491.447 2.05898 492.21 0.0241726 498.118 0.0078125ZM486.618 35.2734C485.686 35.7994 485.686 35.7994 484.735 36.3359C478.11 40.4661 473.53 47.641 471.091 54.9883C469.203 64.1127 470.207 73.0638 474.618 81.2734C479.753 88.9216 487.125 94.6327 496.153 96.9141C506.895 98.4803 515.622 96.3363 524.477 90.0664C531.808 83.9262 535.884 76.6805 536.966 67.2383C537.448 56.8605 534.49 48.1089 527.618 40.2734C519.085 32.4933 510.761 30.5291 499.47 30.9219C494.44 31.381 490.858 32.5993 486.618 35.2734Z" fill="#2D3B66"/>
<path d="M520.805 42.8983C526.447 47.3518 529.494 53.2352 530.618 60.2733C531.273 68.6333 529.337 75.6758 523.993 82.1483C517.83 88.4564 512.406 90.4615 503.618 90.7733C494.795 90.4603 489.391 88.4573 483.243 82.0858C478.415 76.22 475.972 69.952 476.336 62.3046C477.357 54.9308 480.302 48.5319 485.618 43.2733C497.026 35.2911 509.265 35.1328 520.805 42.8983ZM501.618 46.2733C499.46 48.4307 500.432 53.2213 500.43 56.2108C500.418 57.0481 500.406 57.8853 500.393 58.7479C500.391 59.5491 500.389 60.3502 500.387 61.1757C500.383 61.9129 500.379 62.6502 500.375 63.4098C500.457 65.5193 500.457 65.5193 502.618 67.2733C505.491 67.4719 508.246 67.5516 511.118 67.5233C511.903 67.5311 512.688 67.5388 513.496 67.5468C518.033 67.7175 518.033 67.7175 521.618 65.2733C521.451 63.19 521.451 63.19 520.618 61.2733C517.853 59.8911 515.571 60.1781 512.493 60.2108C510.554 60.2314 508.615 60.2521 506.618 60.2733C506.618 55.9833 506.618 51.6933 506.618 47.2733C504.968 46.9433 503.318 46.6133 501.618 46.2733Z" fill="#2D3B66"/>
<path d="M877.12 57.9215C878.37 57.9009 879.621 57.8803 880.909 57.859C889.162 57.8242 895.589 58.0627 902.182 63.484C907.269 69.7336 907.809 74.7492 907.733 82.5309C907.734 84.0093 907.734 84.0093 907.735 85.5176C907.732 87.5919 907.722 89.6662 907.706 91.7404C907.682 94.9247 907.685 98.1082 907.692 101.293C907.686 103.31 907.679 105.327 907.671 107.343C907.672 108.776 907.672 108.776 907.673 110.238C907.664 111.119 907.654 112.001 907.644 112.909C907.64 113.686 907.635 114.463 907.63 115.263C907.37 117.172 907.37 117.172 905.37 119.172C903.017 119.426 903.017 119.426 900.034 119.43C898.919 119.437 897.805 119.443 896.656 119.449C895.448 119.445 894.24 119.441 892.995 119.437C891.142 119.44 891.142 119.44 889.251 119.443C885.964 119.445 882.677 119.437 879.389 119.425C877.372 119.422 875.354 119.425 873.337 119.432C869.473 119.445 865.609 119.443 861.745 119.437C860.536 119.441 859.328 119.445 858.083 119.449C856.411 119.44 856.411 119.44 854.706 119.43C853.721 119.429 852.737 119.427 851.723 119.426C849.37 119.172 849.37 119.172 847.37 117.172C847.102 115.276 847.102 115.276 847.079 112.941C847.066 112.066 847.054 111.191 847.041 110.289C847.038 109.34 847.036 108.391 847.034 107.414C847.027 106.437 847.02 105.46 847.014 104.453C847.003 102.38 846.999 100.307 846.999 98.234C846.995 95.0798 846.959 91.9271 846.921 88.7731C846.915 86.7575 846.911 84.7419 846.909 82.7262C846.894 81.7895 846.88 80.8527 846.865 79.8876C846.907 73.8131 847.933 69.2524 851.37 64.1715C853.37 62.3317 853.37 62.3317 855.37 61.234C856.03 60.8538 856.69 60.4735 857.37 60.0817C863.6 57.2463 870.415 57.9489 877.12 57.9215Z" fill="#2D3B66"/>
<path d="M890.307 12.8594C896.075 17.1855 899.065 22.0551 900.37 29.1719C900.37 36.6247 899.042 42.2259 893.932 47.8594C888.302 52.9403 883.971 54.5737 876.37 55.1719C870.005 54.7898 865.003 52.5278 860.37 48.1719C855.786 42.5967 853.99 36.8279 854.495 29.6719C855.52 22.9778 857.847 18.0673 863.182 13.7969C871.645 8.08772 881.529 7.34965 890.307 12.8594Z" fill="#2D3B66"/>
<path d="M912.369 68.1718C929.137 67.2561 929.137 67.2561 934.889 71.7382C940.292 76.97 941.487 80.642 941.607 88.0702C941.633 90.1696 941.653 92.2687 941.664 94.3681C941.676 95.8171 941.696 97.266 941.726 98.7148C941.769 100.813 941.785 102.909 941.795 105.008C941.81 106.261 941.824 107.515 941.839 108.806C941.278 112.825 940.289 114.391 937.369 117.172C932.815 119.953 927.719 119.397 922.557 119.297C921.673 119.288 920.789 119.279 919.879 119.269C917.709 119.246 915.539 119.21 913.369 119.172C913.374 117.876 913.38 116.579 913.385 115.244C913.403 110.415 913.415 105.586 913.424 100.757C913.429 98.6712 913.436 96.585 913.445 94.4987C913.457 91.4926 913.462 88.4865 913.467 85.4804C913.475 84.0909 913.475 84.0909 913.482 82.6734C913.483 77.7274 913.212 73.0474 912.369 68.1718Z" fill="#2D3B66"/>
<path d="M834.619 68.0464C835.364 68.0554 836.109 68.0645 836.877 68.0738C838.708 68.0972 840.539 68.1331 842.369 68.1714C842.206 69.1138 842.043 70.0562 841.875 71.0271C841.191 75.8425 841.244 80.6249 841.271 85.48C841.273 86.4467 841.274 87.4134 841.276 88.4095C841.281 91.476 841.294 94.5424 841.307 97.6089C841.312 99.6968 841.316 101.785 841.32 103.873C841.331 108.972 841.349 114.072 841.369 119.171C838.327 119.253 835.287 119.312 832.244 119.359C831.388 119.384 830.532 119.409 829.65 119.435C823.501 119.506 819.164 118.819 814.519 114.419C812.91 111.274 812.98 108.733 812.971 105.21C812.968 104.542 812.965 103.874 812.962 103.186C812.96 101.775 812.965 100.365 812.978 98.9546C812.994 96.8101 812.978 94.6674 812.959 92.523C812.961 91.148 812.965 89.773 812.971 88.398C812.974 87.1561 812.977 85.9143 812.981 84.6348C813.474 80.2401 814.841 76.8508 817.834 73.562C823.702 69.0172 827.184 67.8756 834.619 68.0464Z" fill="#2D3B66"/>
<path d="M923.595 31.0431C928.337 33.7514 931.729 36.8743 933.369 42.172C934.234 47.7697 933.989 52.8562 930.752 57.633C926.73 62.1091 922.408 64.4533 916.369 64.797C911.053 64.4944 907.292 62.7425 903.369 59.172C899.75 55.0521 898.708 50.8734 898.986 45.4455C899.92 39.9001 902.046 36.2248 906.431 32.7345C911.939 29.8047 917.642 28.7141 923.595 31.0431Z" fill="#2D3B66"/>
<path d="M846.681 31.7968C851.395 34.4353 853.677 38.0964 855.369 43.1718C856.195 49.1526 855.44 53.4985 851.908 58.4413C848.047 62.783 844.217 64.3882 838.431 64.7343C833.056 64.4888 829.338 62.7745 825.369 59.1718C821.514 54.8807 820.664 50.3454 820.924 44.6679C821.809 39.7051 824.182 36.0925 827.943 32.7889C833.828 28.8656 840.333 28.9882 846.681 31.7968Z" fill="#2D3B66"/>
<path d="M112.738 263.232C114.034 263.22 115.329 263.207 116.663 263.194C118.07 263.191 119.477 263.188 120.884 263.187C122.337 263.18 123.79 263.174 125.244 263.167C128.288 263.155 131.331 263.151 134.375 263.152C138.259 263.152 142.142 263.125 146.025 263.091C149.027 263.068 152.029 263.064 155.031 263.065C156.462 263.063 157.892 263.054 159.323 263.039C168.403 262.949 175.15 263.132 182.263 269.269C182.932 270.106 182.932 270.106 183.614 270.96C184.306 271.794 184.306 271.794 185.013 272.644C189.076 278.868 188.928 285.315 188.239 292.523C186.539 298.816 182.516 302.894 177.239 306.523C173.06 308.766 171.378 308.523 166.239 308.523C166.239 314.133 166.239 319.743 166.239 325.523C161.667 323.694 159.758 322.459 156.302 319.21C154.985 318.012 154.985 318.012 153.641 316.788C152.282 315.506 150.942 314.199 149.68 312.82C146.615 309.655 143.717 309.008 139.489 308.648C131.828 308.96 128.323 313.281 123.239 318.523C121.599 319.909 119.934 321.266 118.239 322.585C117.517 323.154 116.795 323.722 116.052 324.308C114.239 325.523 114.239 325.523 112.239 325.523C112.239 319.913 112.239 314.303 112.239 308.523C110.919 308.482 109.599 308.44 108.239 308.398C102.054 307.706 97.8232 304.63 93.8875 299.898C89.4536 293.518 89.616 287.036 90.2391 279.523C91.8975 273.329 95.9358 268.985 101.239 265.523C105.189 263.632 108.377 263.262 112.738 263.232ZM121.239 282.523C121.239 284.833 121.239 287.143 121.239 289.523C123.219 289.523 125.199 289.523 127.239 289.523C127.239 287.213 127.239 284.903 127.239 282.523C125.259 282.523 123.279 282.523 121.239 282.523ZM136.239 282.523C136.239 284.833 136.239 287.143 136.239 289.523C138.219 289.523 140.199 289.523 142.239 289.523C142.239 287.213 142.239 284.903 142.239 282.523C140.259 282.523 138.279 282.523 136.239 282.523ZM151.239 282.523C151.239 284.833 151.239 287.143 151.239 289.523C153.219 289.523 155.199 289.523 157.239 289.523C157.239 287.213 157.239 284.903 157.239 282.523C155.259 282.523 153.279 282.523 151.239 282.523Z" fill="#2D3B66"/>
<path d="M175.238 331.522C179.854 333.709 181.967 336.018 184.238 340.522C185.021 345.761 185.382 351.542 182.426 356.147C180.238 358.522 180.238 358.522 177.238 360.522C178.047 360.548 178.855 360.574 179.688 360.601C188.42 361.064 188.42 361.064 192.363 363.272C199.315 371.615 196.238 380.176 196.238 391.522C178.418 391.522 160.598 391.522 142.238 391.522C142.238 367.581 142.238 367.581 147.035 362.69C149.902 361.171 152.259 361.01 155.488 360.835C156.566 360.769 157.644 360.703 158.754 360.636C159.574 360.598 160.394 360.561 161.238 360.522C160.455 359.759 159.671 358.996 158.863 358.21C155.012 354.267 153.932 352.141 153.863 346.71C153.958 341.498 154.536 338.425 158.238 334.522C163.68 330.633 168.757 330.732 175.238 331.522Z" fill="#2D3B66"/>
<path d="M115.238 331.522C119.854 333.709 121.967 336.018 124.238 340.522C125.021 345.761 125.382 351.542 122.426 356.147C120.238 358.522 120.238 358.522 117.238 360.522C118.047 360.548 118.855 360.574 119.688 360.601C128.42 361.064 128.42 361.064 132.363 363.272C139.315 371.615 136.238 380.176 136.238 391.522C118.418 391.522 100.598 391.522 82.2383 391.522C82.2383 367.581 82.2383 367.581 87.0352 362.69C89.902 361.171 92.2594 361.01 95.4883 360.835C96.5659 360.769 97.6436 360.703 98.7539 360.636C99.5738 360.598 100.394 360.561 101.238 360.522C100.455 359.759 99.6708 358.996 98.8633 358.21C95.0117 354.267 93.9316 352.141 93.8633 346.71C93.9577 341.498 94.5361 338.425 98.2383 334.522C103.68 330.633 108.757 330.732 115.238 331.522Z" fill="#2D3B66"/>
<path d="M486.428 300.076C487.553 300.066 488.678 300.056 489.837 300.046C491.047 300.042 492.258 300.038 493.505 300.034C495.376 300.025 495.376 300.025 497.285 300.016C499.924 300.007 502.563 300 505.201 299.996C508.575 299.991 511.948 299.967 515.322 299.938C518.55 299.915 521.777 299.913 525.005 299.909C526.213 299.896 527.422 299.884 528.667 299.871C529.795 299.874 530.922 299.877 532.085 299.88C533.569 299.875 533.569 299.875 535.083 299.869C538.315 300.303 540.198 301.329 542.821 303.237C544.367 306.328 544.115 308.831 543.821 312.237C541.693 315.095 540.534 316.123 536.98 316.691C535.378 316.659 535.378 316.659 533.743 316.627C532.583 316.614 531.423 316.601 530.227 316.588C529.021 316.555 527.814 316.521 526.571 316.487C524.738 316.46 524.738 316.46 522.868 316.432C519.852 316.385 516.837 316.319 513.821 316.237C513.789 334.403 515.917 351.33 519.446 369.088C522.378 383.963 522.378 383.963 520.509 388.237C518.126 391.06 517.189 391.203 513.446 391.549C509.821 391.237 509.821 391.237 507.715 389.624C505.398 386.704 504.755 384.343 503.899 380.721C503.596 379.471 503.293 378.22 502.981 376.932C502.678 375.617 502.374 374.302 502.071 372.987C501.753 371.656 501.434 370.325 501.114 368.994C500.337 365.745 499.573 362.492 498.821 359.237C496.252 366.487 494.403 373.804 492.716 381.303C492.412 382.581 492.412 382.581 492.102 383.885C491.928 384.65 491.753 385.415 491.573 386.203C490.691 388.589 489.85 389.708 487.821 391.237C483.502 391.717 481.085 391.963 477.321 389.799C473.095 382.579 476.845 371.614 478.321 363.924C478.793 361.429 479.262 358.933 479.727 356.436C479.937 355.341 480.146 354.246 480.362 353.118C480.926 350.065 480.926 350.065 480.821 346.237C479.584 346.299 478.346 346.36 477.071 346.424C474.189 346.424 472.977 346.32 470.384 344.924C466.082 340.278 467.595 332.323 467.571 326.424C467.55 325.152 467.53 323.881 467.509 322.571C467.503 321.34 467.498 320.11 467.493 318.842C467.484 317.72 467.474 316.597 467.465 315.44C467.941 311.16 469.413 307.817 472.286 304.592C477.149 300.735 480.336 300.118 486.428 300.076Z" fill="#2D3B66"/>
<path d="M536.85 263.091C538.131 263.082 538.131 263.082 539.439 263.072C540.368 263.071 541.297 263.07 542.254 263.069C543.202 263.065 544.151 263.062 545.128 263.059C547.138 263.053 549.148 263.051 551.158 263.051C554.241 263.049 557.325 263.031 560.408 263.012C562.357 263.009 564.306 263.007 566.254 263.006C567.645 262.995 567.645 262.995 569.064 262.984C569.921 262.987 570.779 262.991 571.662 262.994C572.419 262.992 573.175 262.991 573.954 262.989C575.821 263.237 575.821 263.237 577.821 265.237C577.907 268.263 577.158 269.848 575.188 272.119C573.436 273.871 571.656 275.573 569.821 277.237C571.171 280.246 572.717 282.317 575.008 284.674C577.821 287.856 577.821 287.856 577.821 291.112C576.821 293.237 576.821 293.237 574.821 294.237C573.431 294.326 572.038 294.354 570.646 294.35C569.355 294.35 569.355 294.35 568.038 294.35C567.108 294.345 566.177 294.34 565.219 294.334C564.267 294.333 563.316 294.331 562.335 294.33C559.289 294.324 556.242 294.312 553.196 294.299C551.133 294.294 549.071 294.29 547.008 294.285C541.946 294.274 536.883 294.257 531.821 294.237C531.796 289.982 531.778 285.728 531.766 281.474C531.761 280.026 531.754 278.578 531.745 277.129C531.733 275.052 531.727 272.974 531.723 270.897C531.718 269.645 531.712 268.394 531.707 267.104C531.879 262.764 532.907 263.111 536.85 263.091Z" fill="#2D3B66"/>
<path d="M539.819 322.236C539.843 331.085 539.86 339.934 539.871 348.783C539.877 352.891 539.884 357 539.895 361.108C539.906 365.07 539.912 369.031 539.914 372.993C539.916 374.508 539.92 376.023 539.925 377.537C539.932 379.652 539.933 381.766 539.933 383.881C539.935 385.086 539.937 386.292 539.94 387.535C539.819 390.236 539.819 390.236 538.819 391.236C535.819 391.361 535.819 391.361 532.819 391.236C531.819 390.236 531.819 390.236 531.699 387.572C531.701 386.384 531.704 385.196 531.706 383.972C531.706 383.319 531.706 382.665 531.706 381.992C531.706 379.822 531.714 377.652 531.722 375.482C531.724 373.982 531.725 372.481 531.726 370.98C531.73 367.023 531.74 363.066 531.751 359.109C531.761 355.074 531.766 351.039 531.771 347.004C531.781 339.081 531.798 331.159 531.819 323.236C537.569 322.236 537.569 322.236 539.819 322.236Z" fill="#2D3B66"/>
<path d="M503.82 271.236C506.758 273.736 506.758 273.736 508.82 276.236C509.15 276.566 509.48 276.896 509.82 277.236C510.476 282.291 510.695 286.036 507.633 290.236C503.594 293.108 501.335 294.263 496.32 294.174C491.977 293.01 490.42 291.907 487.82 288.236C486.492 283.783 486.488 280.292 487.883 275.861C492.007 270.274 497.415 269.022 503.82 271.236Z" fill="#2D3B66"/>
<path d="M875.826 344.674C879.786 344.674 883.746 344.674 887.826 344.674C888.738 346.692 889.649 348.71 890.561 350.729C892.081 353.066 893.231 353.721 895.826 354.674C899.515 355.009 902.111 354.95 905.576 353.611C908.658 350.958 909.461 348.483 910.826 344.674C914.786 344.674 918.746 344.674 922.826 344.674C922.826 360.184 922.826 375.694 922.826 391.674C907.316 391.674 891.806 391.674 875.826 391.674C875.826 386.064 875.826 380.454 875.826 374.674C873.186 374.674 870.546 374.674 867.826 374.674C865.764 373.486 865.764 373.486 864.826 371.674C865.071 368.332 865.432 367.068 867.826 364.674C870.466 364.674 873.106 364.674 875.826 364.674C875.826 358.074 875.826 351.474 875.826 344.674Z" fill="#2D3B66"/>
<path d="M822.826 291.674C838.336 291.674 853.846 291.674 869.826 291.674C869.826 297.614 869.826 303.554 869.826 309.674C871.291 309.818 872.755 309.963 874.264 310.111C878.701 310.549 878.701 310.549 879.826 311.674C880.014 314.611 880.014 314.611 879.826 317.674C879.166 318.334 878.506 318.994 877.826 319.674C875.186 319.674 872.546 319.674 869.826 319.674C869.826 325.944 869.826 332.214 869.826 338.674C865.206 338.674 860.586 338.674 855.826 338.674C855.269 337.395 854.712 336.116 854.139 334.799C852.755 332.066 852.09 330.852 849.514 329.111C845.913 328.525 843.362 328.727 839.826 329.674C836.375 332.512 834.841 334.645 832.826 338.674C829.526 338.674 826.226 338.674 822.826 338.674C822.826 323.164 822.826 307.654 822.826 291.674Z" fill="#2D3B66"/>
<path d="M844.826 334.361C845.816 334.464 846.806 334.568 847.826 334.674C849.826 337.674 849.826 337.674 849.826 344.674C856.426 344.674 863.026 344.674 869.826 344.674C869.826 349.294 869.826 353.914 869.826 358.674C868.733 359.086 867.64 359.499 866.514 359.924C863.284 361.342 861.352 362.353 859.826 365.674C859.317 370.253 859.148 372.499 861.451 376.486C864.064 378.893 866.576 380.271 869.826 381.674C869.826 384.974 869.826 388.274 869.826 391.674C854.316 391.674 838.806 391.674 822.826 391.674C822.826 376.164 822.826 360.654 822.826 344.674C828.436 344.674 834.046 344.674 839.826 344.674C839.826 342.034 839.826 339.394 839.826 336.674C841.826 334.674 841.826 334.674 844.826 334.361Z" fill="#2D3B66"/>
<path d="M938.327 265.173C944.095 268.712 948.84 274.19 950.827 280.673C951.599 288.688 952.149 297.121 946.827 303.673C940.836 310.34 934.707 313.131 925.889 314.111C919.045 313.823 911.518 310.633 906.827 305.673C901.949 298.155 899.535 291.461 901.252 282.435C903.331 275.053 907.789 269.233 914.327 265.173C921.337 262.106 931.316 262.106 938.327 265.173ZM934.827 277.673C931.197 281.303 927.567 284.933 923.827 288.673C922.177 287.353 920.527 286.033 918.827 284.673C916.847 285.663 916.847 285.663 914.827 286.673C914.405 290.618 914.405 290.618 916.577 292.814C917.319 293.51 918.062 294.206 918.827 294.923C919.569 295.63 920.312 296.336 921.077 297.064C921.943 297.861 921.943 297.861 922.827 298.673C928.86 293.689 934.345 288.254 939.827 282.673C939.035 280.674 939.035 280.674 937.827 278.673C936.837 278.343 935.847 278.013 934.827 277.673Z" fill="#2D3B66"/>
<path d="M875.826 291.674C882.096 291.674 888.366 291.674 894.826 291.674C895.404 293.365 895.981 295.056 896.576 296.799C899.695 305.286 904.076 311.921 912.396 315.904C915.836 317.293 919.308 318.501 922.826 319.674C922.826 325.944 922.826 332.214 922.826 338.674C916.886 338.674 910.946 338.674 904.826 338.674C904.826 340.984 904.826 343.294 904.826 345.674C903.139 348.174 903.139 348.174 900.826 349.674C896.526 349.374 896.526 349.374 894.826 347.674C894.826 344.704 894.826 341.734 894.826 338.674C888.556 338.674 882.286 338.674 875.826 338.674C875.826 334.714 875.826 330.754 875.826 326.674C876.734 326.303 877.641 325.931 878.576 325.549C882.439 323.32 883.925 321.704 885.826 317.674C886.164 314.75 885.909 312.414 884.826 309.674C882.327 306.653 879.559 304.918 875.826 303.674C875.826 299.714 875.826 295.754 875.826 291.674Z" fill="#2D3B66"/>
</svg>
