<svg width="1008" height="436" viewBox="0 0 1008 436" fill="none" xmlns="http://www.w3.org/2000/svg">
<path d="M86.3345 1.86581C87.2196 1.86085 88.1047 1.85588 89.0165 1.85077C91.9432 1.83617 94.8698 1.82935 97.7965 1.82382C99.8342 1.81807 101.872 1.81231 103.91 1.80655C108.184 1.79605 112.457 1.7902 116.731 1.78671C122.196 1.78123 127.661 1.75721 133.126 1.72874C137.337 1.71008 141.547 1.70491 145.758 1.70338C147.772 1.70036 149.786 1.69235 151.8 1.67919C154.625 1.66206 157.448 1.66403 160.272 1.6705C161.51 1.65668 161.51 1.65668 162.773 1.64258C169.382 1.68981 174.529 3.19288 180.25 6.65195C186.224 12.788 188.311 19.1055 188.225 27.5189C188.235 28.421 188.246 29.3231 188.256 30.2525C188.283 33.2077 188.274 36.1615 188.261 39.1168C188.267 41.1875 188.274 43.2582 188.283 45.3288C188.295 49.6586 188.288 53.9879 188.269 58.3177C188.246 63.8469 188.273 69.3746 188.314 74.9037C188.34 79.1771 188.337 83.4501 188.326 87.7235C188.325 89.7611 188.332 91.7988 188.349 93.8363C188.496 114.624 188.496 114.624 181.562 122.027C175.106 127.407 168.676 128.326 160.578 128.317C159.253 128.328 159.253 128.328 157.9 128.338C154.989 128.357 152.079 128.361 149.168 128.363C147.135 128.369 145.102 128.376 143.07 128.383C138.812 128.395 134.555 128.399 130.297 128.398C124.857 128.397 119.417 128.425 113.976 128.459C109.779 128.481 105.581 128.485 101.383 128.484C99.3781 128.487 97.3732 128.495 95.3683 128.511C92.5565 128.531 89.7458 128.525 86.9339 128.513C86.1154 128.524 85.2969 128.535 84.4537 128.547C77.2316 128.469 71.3429 126.313 65.7496 121.714C60.5315 115.304 58.9647 110.888 59.0128 102.762C59.0025 101.86 58.9923 100.958 58.9818 100.029C58.9541 97.0634 58.9559 94.0984 58.9605 91.1324C58.9527 89.0589 58.9441 86.9853 58.9345 84.9118C58.9196 80.5701 58.9202 76.2287 58.9307 71.8871C58.9423 66.3421 58.9085 60.7985 58.862 55.2538C58.8325 50.9719 58.8308 46.6903 58.8371 42.4083C58.836 40.365 58.8256 38.3218 58.8054 36.2787C58.6223 15.1647 58.6223 15.1647 65.5621 8.02695C72.2816 2.68086 77.8561 1.87719 86.3345 1.86581ZM88.5621 35.0269C88.5621 53.1769 88.5621 71.3269 88.5621 90.0269C92.1921 90.0269 95.8221 90.0269 99.5621 90.0269C99.5621 84.0869 99.5621 78.1469 99.5621 72.0269C100.222 72.3569 100.882 72.6869 101.562 73.0269C109.926 72.9762 116.601 72.0878 123.312 66.9019C126.793 62.4538 128.63 58.1848 128.507 52.4684C127.724 47.2186 126.008 43.5258 122.586 39.4996C112.26 31.9848 101.198 35.0269 88.5621 35.0269ZM136.625 53.9019C135.21 56.7309 134.689 58.8532 134.562 62.0269C136.286 66.997 139.155 70.2428 143.562 73.0269C145.92 74.0866 148.277 75.0541 150.707 75.9371C152.562 77.0269 152.562 77.0269 153.324 79.148C153.402 79.7681 153.481 80.3881 153.562 81.0269C146.22 82.3296 141.597 81.5039 134.562 79.0269C134.562 82.3269 134.562 85.6269 134.562 89.0269C138.786 91.0621 142.335 91.3254 147 91.3394C148.277 91.3562 149.555 91.373 150.871 91.3902C155.921 90.8932 159.181 89.2625 162.937 85.9019C165.137 82.01 165.581 78.4005 164.562 74.0269C161.651 69.3365 158.157 67.4448 153.312 65.2144C152.662 64.9031 152.013 64.5918 151.343 64.2711C149.755 63.5119 148.159 62.7678 146.562 62.0269C146.562 60.7069 146.562 59.3869 146.562 58.0269C148.291 57.9997 150.02 57.9804 151.75 57.9644C152.713 57.9528 153.675 57.9412 154.668 57.9293C157.418 58.0221 159.887 58.4058 162.562 59.0269C162.562 56.0569 162.562 53.0869 162.562 50.0269C153.55 45.9672 143.829 46.9302 136.625 53.9019Z" fill="#2D3B66"/>
<path d="M99.5625 44.0273C110.118 44.0273 110.118 44.0273 115.562 47.0273C118.054 50.7647 118.02 52.6007 117.562 57.0273C115.767 59.7806 114.51 61.5536 111.562 63.0273C109.522 63.098 107.479 63.1116 105.438 63.0898C102.529 63.0589 102.529 63.0589 99.5625 63.0273C99.5625 56.7573 99.5625 50.4873 99.5625 44.0273Z" fill="#2D3B66"/>
<path d="M466.053 1.04453C466.938 1.03956 467.823 1.0346 468.735 1.02948C471.662 1.01488 474.589 1.00806 477.515 1.00253C479.553 0.996779 481.591 0.991021 483.629 0.98526C487.902 0.974756 492.176 0.96891 496.45 0.965424C501.915 0.959944 507.38 0.935924 512.845 0.907452C517.056 0.888789 521.266 0.883618 525.477 0.882088C527.491 0.879068 529.505 0.871064 531.519 0.857903C534.343 0.840767 537.167 0.842741 539.991 0.849213C541.229 0.83539 541.229 0.83539 542.491 0.821289C549.101 0.868519 554.248 2.37159 559.968 5.83066C565.943 11.9667 568.03 18.2842 567.944 26.6976C567.954 27.5997 567.964 28.5018 567.975 29.4312C568.002 32.3864 567.993 35.3402 567.98 38.2955C567.986 40.3662 567.993 42.4369 568.002 44.5076C568.014 48.8374 568.007 53.1667 567.988 57.4964C567.965 63.0257 567.992 68.5533 568.033 74.0824C568.058 78.3558 568.056 82.6288 568.045 86.9022C568.043 88.9398 568.051 90.9775 568.068 93.015C568.214 113.803 568.214 113.803 561.281 121.206C554.824 126.586 548.395 127.505 540.297 127.496C538.972 127.506 538.972 127.506 537.619 127.517C534.708 127.535 531.797 127.539 528.886 127.542C526.854 127.548 524.821 127.555 522.789 127.562C518.531 127.574 514.274 127.577 510.016 127.576C504.575 127.576 499.135 127.603 493.695 127.638C489.497 127.66 485.3 127.664 481.102 127.663C479.097 127.665 477.092 127.674 475.087 127.69C472.275 127.709 469.465 127.704 466.653 127.691C465.834 127.703 465.016 127.714 464.172 127.726C456.95 127.648 451.062 125.492 445.468 120.893C440.25 114.482 438.683 110.066 438.732 101.941C438.721 101.039 438.711 100.137 438.701 99.2081C438.673 96.2421 438.675 93.2772 438.679 90.3111C438.671 88.2376 438.663 86.164 438.653 84.0905C438.638 79.7488 438.639 75.4075 438.649 71.0658C438.661 65.5208 438.627 59.9772 438.581 54.4325C438.551 50.1506 438.55 45.869 438.556 41.587C438.555 39.5438 438.544 37.5005 438.524 35.4574C438.341 14.3434 438.341 14.3434 445.281 7.20566C452 1.85957 457.575 1.0559 466.053 1.04453ZM525.468 31.3307C523.729 34.0772 523.883 36.0241 524.281 39.2057C525.197 41.289 525.197 41.289 527.281 42.2057C530.858 42.2065 530.858 42.2065 534.281 41.2057C536.601 38.38 536.601 38.38 536.093 35.1432C535.543 31.9082 535.543 31.9082 532.281 30.2057C529.45 29.8518 527.913 29.8136 525.468 31.3307ZM484.281 34.2057C483.77 35.9124 483.26 37.6191 482.734 39.3775C479.728 49.1469 476.359 58.7925 473.031 68.4557C472.058 71.2822 471.086 74.1089 470.116 76.9363C469.516 78.683 468.915 80.4291 468.313 82.1747C466.907 85.6177 466.907 85.6177 466.281 89.2057C469.911 89.2057 473.541 89.2057 477.281 89.2057C478.601 85.2457 479.921 81.2857 481.281 77.2057C491.676 76.7107 491.676 76.7107 502.281 76.2057C502.941 79.1757 503.601 82.1457 504.281 85.2057C504.941 86.5257 505.601 87.8457 506.281 89.2057C509.911 89.2057 513.541 89.2057 517.281 89.2057C515.389 82.011 513.271 75.0077 510.742 68.0143C510.415 67.1023 510.089 66.1904 509.753 65.2508C509.071 63.347 508.387 61.4438 507.701 59.5414C506.648 56.6204 505.6 53.6974 504.554 50.774C503.888 48.9165 503.221 47.059 502.554 45.2018C502.241 44.3279 501.927 43.454 501.604 42.5537C501.314 41.7484 501.023 40.9432 500.724 40.1136C500.468 39.4051 500.213 38.6966 499.95 37.9666C499.289 36.1382 499.289 36.1382 498.281 34.2057C493.661 34.2057 489.041 34.2057 484.281 34.2057ZM524.281 48.2057C524.281 61.7357 524.281 75.2657 524.281 89.2057C527.911 89.2057 531.541 89.2057 535.281 89.2057C535.281 75.6757 535.281 62.1457 535.281 48.2057C531.651 48.2057 528.021 48.2057 524.281 48.2057Z" fill="#2D3B66"/>
<path d="M490.281 43.2061C490.941 43.2061 491.601 43.2061 492.281 43.2061C493.288 46.4749 494.285 49.7464 495.281 53.0186C495.567 53.9473 495.854 54.8761 496.148 55.833C496.419 56.7257 496.69 57.6184 496.969 58.5381C497.22 59.3603 497.471 60.1824 497.73 61.0295C498.281 63.2061 498.281 63.2061 498.281 66.2061C493.661 66.2061 489.041 66.2061 484.281 66.2061C485.694 58.3202 487.821 50.8268 490.281 43.2061Z" fill="#2D3B66"/>
<path d="M838.352 4.84741C839.235 4.84084 840.119 4.83427 841.029 4.8275C843.951 4.8078 846.873 4.79611 849.795 4.78613C850.795 4.78206 851.795 4.77798 852.825 4.77378C858.12 4.75294 863.415 4.73863 868.709 4.72925C874.166 4.71819 879.621 4.6838 885.077 4.64408C889.284 4.61787 893.49 4.60955 897.696 4.60597C899.707 4.60111 901.717 4.58952 903.728 4.57093C906.55 4.54646 909.37 4.54752 912.192 4.55444C913.013 4.54163 913.835 4.52882 914.681 4.51562C921.918 4.57999 927.804 6.72902 933.408 11.3369C938.626 17.7477 940.193 22.1637 940.145 30.2893C940.155 31.1911 940.165 32.0929 940.176 33.022C940.203 35.9879 940.201 38.9529 940.197 41.9189C940.205 43.9925 940.213 46.066 940.223 48.1396C940.238 52.4813 940.237 56.8226 940.227 61.1643C940.215 66.7092 940.249 72.2528 940.295 77.7976C940.325 82.0795 940.327 86.3611 940.32 90.6431C940.321 92.6863 940.332 94.7295 940.352 96.7727C940.533 117.634 940.533 117.634 933.595 125.024C927.139 130.405 920.709 131.324 912.612 131.315C911.286 131.325 911.286 131.325 909.934 131.335C907.023 131.354 904.112 131.358 901.201 131.36C899.168 131.367 897.136 131.374 895.103 131.381C890.846 131.392 886.588 131.396 882.33 131.395C876.89 131.395 871.45 131.422 866.01 131.457C861.812 131.479 857.614 131.483 853.416 131.482C851.411 131.484 849.406 131.493 847.401 131.508C844.59 131.528 841.779 131.522 838.967 131.51C838.149 131.521 837.33 131.533 836.487 131.544C829.265 131.466 823.376 129.311 817.783 124.712C812.565 118.301 810.998 113.885 811.046 105.76C811.036 104.858 811.026 103.956 811.015 103.027C810.987 100.061 810.989 97.0959 810.994 94.1299C810.986 92.0563 810.977 89.9828 810.968 87.9093C810.953 83.5676 810.953 79.2262 810.964 74.8845C810.976 69.3396 810.942 63.796 810.895 58.2513C810.866 53.9693 810.864 49.6877 810.87 45.4057C810.869 43.3625 810.859 41.3193 810.839 39.2762C810.655 18.1622 810.655 18.1622 817.595 11.0244C824.306 5.68514 829.884 4.87479 838.352 4.84741ZM845.595 38.0244C845.462 38.6521 845.329 39.2798 845.192 39.9265C842.774 50.4316 839.041 60.4543 835.408 70.5869C834.426 73.3275 833.446 76.0687 832.472 78.812C831.87 80.5075 831.264 82.2015 830.653 83.8937C830.382 84.6556 830.112 85.4174 829.833 86.2024C829.593 86.8701 829.354 87.5379 829.107 88.2258C828.459 90.1937 828.459 90.1937 828.595 93.0244C831.895 93.0244 835.195 93.0244 838.595 93.0244C839.266 91.2342 839.932 89.4422 840.595 87.6494C840.967 86.6517 841.338 85.6539 841.72 84.626C842.702 82.1659 842.702 82.1659 842.595 80.0244C849.525 80.0244 856.455 80.0244 863.595 80.0244C864.585 83.3244 865.575 86.6244 866.595 90.0244C866.925 91.0144 867.255 92.0044 867.595 93.0244C871.555 93.0244 875.515 93.0244 879.595 93.0244C874.65 78.5808 869.684 64.1463 864.533 49.7744C864.151 48.7046 863.77 47.6347 863.377 46.5325C863.025 45.5553 862.673 44.5781 862.31 43.5713C862.002 42.7137 861.694 41.8562 861.376 40.9727C860.755 39.053 860.755 39.053 859.595 38.0244C857.242 37.9517 854.887 37.9407 852.533 37.9619C851.242 37.9709 849.952 37.98 848.623 37.9893C847.624 38.0009 846.625 38.0125 845.595 38.0244ZM887.72 57.9619C884.215 63.0143 883.303 66.8099 883.283 72.9619C883.266 74.1466 883.249 75.3312 883.232 76.5518C883.893 82.8685 886.804 86.9955 891.595 91.0244C897.863 94.8112 904.411 94.7031 911.595 94.0244C913.615 93.4193 915.623 92.7689 917.595 92.0244C917.595 89.0544 917.595 86.0844 917.595 83.0244C915.615 83.5194 915.615 83.5194 913.595 84.0244C911.619 84.1657 909.638 84.2444 907.658 84.2744C906.638 84.3002 905.618 84.326 904.568 84.3525C901.058 83.9651 899.316 83.2766 896.595 81.0244C895.935 79.0444 895.275 77.0644 894.595 75.0244C903.175 75.0244 911.755 75.0244 920.595 75.0244C920.963 64.5612 920.963 64.5612 916.595 56.0244C911.519 51.9838 907.366 50.654 901.005 50.7471C895.586 51.3707 891.306 53.9047 887.72 57.9619Z" fill="#2D3B66"/>
<path d="M852.596 47.0244C854.776 49.2046 855.201 50.4117 856.104 53.3057C856.368 54.1474 856.632 54.9892 856.904 55.8564C857.174 56.7369 857.443 57.6173 857.721 58.5244C857.998 59.4048 858.275 60.2853 858.561 61.1924C860.596 67.739 860.596 67.739 860.596 70.0244C855.646 70.0244 850.696 70.0244 845.596 70.0244C850.765 48.8552 850.765 48.8552 852.596 47.0244Z" fill="#2D3B66"/>
<path d="M905.596 59.0239C908.471 61.2739 908.471 61.2739 910.596 64.0239C910.596 65.3439 910.596 66.6639 910.596 68.0239C905.316 68.0239 900.036 68.0239 894.596 68.0239C895.596 62.0239 895.596 62.0239 897.283 60.1489C900.381 58.6421 902.187 58.4674 905.596 59.0239Z" fill="#2D3B66"/>
<path fill-rule="evenodd" clip-rule="evenodd" d="M297.792 264.468C296.903 264.471 296.013 264.474 295.124 264.476C287.288 264.457 281.074 264.951 275.065 270.654C269.664 276.436 268.408 282.287 268.444 289.943C268.449 290.807 268.45 291.671 268.449 292.535C268.441 294.897 268.439 297.258 268.445 299.62C268.453 302.131 268.454 304.641 268.452 307.152C268.45 311.362 268.453 315.571 268.462 319.781C268.473 324.674 268.479 329.568 268.474 334.462C268.47 339.214 268.469 343.966 268.475 348.717L268.475 348.762C268.477 350.761 268.48 352.759 268.479 354.757C268.476 357.165 268.476 359.572 268.483 361.979C268.487 362.869 268.49 363.758 268.492 364.648C268.473 372.483 268.967 378.698 274.669 384.707C280.452 390.108 286.303 391.363 293.959 391.327C294.823 391.323 295.686 391.321 296.55 391.323C298.912 391.331 301.274 391.333 303.636 391.326C306.146 391.319 308.657 391.318 311.168 391.319C315.377 391.322 319.587 391.319 323.796 391.31C328.69 391.298 333.584 391.292 338.478 391.297C343.23 391.302 347.981 391.303 352.733 391.297L352.78 391.297C354.778 391.294 356.775 391.292 358.773 391.293C361.18 391.295 363.588 391.296 365.995 391.288C366.884 391.285 367.774 391.282 368.663 391.279C376.499 391.299 382.713 390.805 388.723 385.102C394.123 379.32 395.379 373.469 395.343 365.813C395.338 364.949 395.337 364.085 395.339 363.221C395.347 360.859 395.348 358.498 395.342 356.136C395.334 353.625 395.333 351.114 395.335 348.604C395.337 344.394 395.335 340.185 395.325 335.975C395.314 331.081 395.308 326.188 395.313 321.294C395.318 316.542 395.318 311.79 395.312 307.039L395.312 306.991C395.31 304.994 395.307 302.996 395.309 300.999C395.311 298.591 395.311 296.184 395.304 293.777C395.3 292.887 395.297 291.998 395.295 291.108C395.314 283.273 394.82 277.058 389.118 271.049C383.335 265.648 377.484 264.393 369.828 264.429C368.965 264.433 368.101 264.434 367.237 264.433C364.875 264.425 362.513 264.423 360.151 264.43C357.641 264.437 355.13 264.438 352.619 264.437C348.41 264.434 344.2 264.437 339.991 264.446C335.097 264.458 330.203 264.464 325.309 264.459C320.558 264.454 315.806 264.453 311.054 264.459L311.008 264.459C309.01 264.462 307.012 264.464 305.014 264.463C302.607 264.461 300.2 264.46 297.792 264.468Z" fill="#2D3B66"/>
<path d="M379.106 277.293C381.679 279.866 381.151 286.231 381.214 289.729C381.202 302.759 375.731 313.902 366.881 323.241C366.556 323.588 366.231 323.935 365.896 324.293C359.613 330.81 351.85 335.459 343.696 339.26C343.216 339.484 342.736 339.709 342.242 339.941C336.043 342.72 329.636 344.379 323.039 345.894C302.952 350.338 302.952 350.338 287.606 363.212C284.738 367.91 283.852 373.066 283.416 378.463C283.277 378.463 283.137 378.463 282.994 378.463C282.446 362.199 286.671 346.369 297.748 334.201C297.988 333.926 298.228 333.651 298.476 333.368C301.932 329.628 306.466 326.791 310.921 324.4C311.356 324.163 311.356 324.163 311.8 323.921C317.725 320.857 324.228 319.029 330.634 317.28C339.979 314.718 349.068 311.886 357.607 307.222C358.055 306.981 358.502 306.739 358.964 306.49C367.682 301.602 374.912 294.949 377.871 285.236C378.506 282.609 378.85 279.983 379.106 277.293Z" fill="#D3F2D1"/>
<path fill-rule="evenodd" clip-rule="evenodd" d="M665.995 264.811C665.106 264.815 664.216 264.818 663.327 264.82C655.492 264.801 649.277 265.295 643.268 270.997C637.867 276.78 636.611 282.631 636.647 290.287C636.652 291.151 636.653 292.015 636.652 292.878C636.644 295.24 636.642 297.602 636.649 299.964C636.656 302.475 636.657 304.985 636.655 307.496C636.653 311.705 636.656 315.915 636.665 320.124C636.676 325.018 636.682 329.912 636.677 334.806C636.673 339.558 636.672 344.309 636.678 349.061L636.678 349.106C636.681 351.104 636.683 353.103 636.682 355.101C636.679 357.508 636.679 359.916 636.686 362.323C636.69 363.213 636.693 364.102 636.695 364.991C636.676 372.827 637.17 379.041 642.872 385.051C648.655 390.451 654.506 391.707 662.162 391.671C663.026 391.666 663.89 391.665 664.753 391.667C667.115 391.675 669.477 391.676 671.839 391.67C674.35 391.663 676.86 391.662 679.371 391.663C683.58 391.665 687.79 391.663 691.999 391.653C696.893 391.642 701.787 391.636 706.681 391.641C711.433 391.646 716.184 391.646 720.936 391.64L720.983 391.64C722.981 391.638 724.978 391.635 726.976 391.637C729.383 391.639 731.791 391.64 734.198 391.632C735.088 391.629 735.977 391.626 736.866 391.623C744.702 391.642 750.916 391.149 756.926 385.446C762.326 379.664 763.582 373.812 763.546 366.157C763.541 365.293 763.54 364.429 763.542 363.565C763.55 361.203 763.551 358.841 763.545 356.48C763.538 353.969 763.537 351.458 763.538 348.947C763.54 344.738 763.538 340.528 763.528 336.319C763.517 331.425 763.511 326.531 763.516 321.637C763.521 316.886 763.521 312.134 763.515 307.382L763.515 307.335C763.513 305.338 763.51 303.34 763.512 301.342C763.514 298.935 763.515 296.528 763.507 294.12C763.504 293.231 763.501 292.341 763.498 291.452C763.517 283.617 763.024 277.402 757.321 271.393C751.539 265.992 745.687 264.736 738.032 264.772C737.168 264.777 736.304 264.778 735.44 264.777C733.078 264.769 730.716 264.767 728.355 264.774C725.844 264.781 723.333 264.782 720.822 264.78C716.613 264.778 712.403 264.781 708.194 264.79C703.3 264.801 698.406 264.807 693.512 264.802C688.761 264.798 684.009 264.797 679.257 264.803L679.211 264.803C677.213 264.806 675.215 264.808 673.217 264.807C670.81 264.804 668.403 264.804 665.995 264.811Z" fill="#2D3B66"/>
<path d="M686.631 291.534C687.295 291.526 687.958 291.518 688.642 291.51C689.718 291.504 689.718 291.504 690.816 291.497C691.554 291.492 692.292 291.487 693.053 291.482C694.617 291.474 696.182 291.467 697.746 291.463C700.134 291.452 702.521 291.426 704.909 291.399C706.429 291.393 707.949 291.388 709.469 291.384C710.537 291.368 710.537 291.368 711.628 291.352C716.318 291.364 719.07 291.902 722.611 295.112C725.871 299.089 726.792 302.182 726.281 307.349C725.033 311.439 722.638 314.597 719.107 316.977C718.683 317.189 718.259 317.401 717.823 317.619C718.458 317.943 719.094 318.267 719.749 318.601C723.063 320.499 725.069 323.029 726.281 326.681C726.808 331.127 726.631 335.119 723.864 338.764C720.833 342.125 717.859 343.374 713.33 343.786C708.667 343.377 705.349 341.525 702.115 338.16C701.916 337.761 701.716 337.362 701.511 336.951C701.502 337.545 701.493 338.139 701.484 338.751C701.449 340.977 701.402 343.203 701.352 345.429C701.332 346.388 701.316 347.347 701.302 348.306C701.112 361.155 701.112 361.155 697.395 365.271C697.117 365.593 696.839 365.915 696.553 366.248C693.076 369.171 689.779 369.289 685.409 369.179C681.662 368.794 679.674 367.229 677.157 364.478C674.327 360.901 673.88 357.763 674.325 353.263C675.573 349.173 677.968 346.015 681.499 343.635C681.922 343.423 682.346 343.211 682.783 342.993C682.425 342.801 682.068 342.61 681.699 342.412C677.775 340.095 675.68 337.712 674.325 333.327C673.579 329.358 674.393 326.132 676.312 322.617C678.041 320.32 680.275 318.963 682.783 317.619C682.462 317.392 682.141 317.166 681.81 316.932C678.593 314.601 675.871 312.318 674.325 308.557C673.866 304.529 673.78 300.476 675.889 296.908C678.799 293.361 682.069 291.58 686.631 291.534ZM700.907 317.619C700.907 320.011 700.907 322.404 700.907 324.869C701.231 324.433 701.555 323.996 701.889 323.547C703.911 321.152 706.146 319.362 708.761 317.619C706.169 317.619 703.577 317.619 700.907 317.619Z" fill="#D3F2D1"/>
<path d="M686.63 291.534C687.294 291.526 687.957 291.518 688.641 291.51C689.717 291.504 689.717 291.504 690.815 291.497C691.553 291.492 692.292 291.487 693.052 291.482C694.616 291.474 696.181 291.467 697.745 291.463C700.133 291.452 702.52 291.426 704.908 291.399C706.428 291.393 707.948 291.388 709.468 291.384C710.537 291.368 710.537 291.368 711.627 291.352C716.317 291.364 719.069 291.902 722.61 295.112C725.87 299.089 726.791 302.182 726.28 307.349C725.049 311.382 722.836 314.709 719.118 316.756C715.932 318.076 712.631 317.89 709.234 317.881C708.174 317.886 708.174 317.886 707.093 317.89C705.602 317.894 704.112 317.894 702.622 317.888C700.349 317.883 698.077 317.901 695.805 317.92C694.353 317.921 692.901 317.92 691.45 317.919C690.774 317.925 690.099 317.932 689.403 317.939C684.801 317.898 681.494 317.26 677.934 314.126C677.665 313.784 677.395 313.441 677.118 313.088C676.839 312.745 676.56 312.403 676.273 312.05C673.788 308.441 673.923 304.994 674.324 300.703C675.36 296.643 678.055 294.333 681.573 292.245C683.417 291.631 684.699 291.554 686.63 291.534Z" fill="#D3F2D1"/>
<path d="M687.263 291.583C688.287 291.585 688.287 291.585 689.331 291.588C690.631 291.596 690.631 291.596 691.957 291.604C694.711 291.617 697.465 291.629 700.302 291.642C700.302 300.016 700.302 308.389 700.302 317.016C696.414 317.24 696.414 317.24 692.448 317.469C691.237 317.549 691.237 317.549 690.001 317.631C685.021 317.866 681.718 317.458 677.934 314.128C677.665 313.785 677.395 313.442 677.118 313.089C676.839 312.746 676.56 312.404 676.273 312.051C673.788 308.442 673.923 304.995 674.324 300.704C675.36 296.644 678.055 294.334 681.573 292.246C683.602 291.57 685.127 291.573 687.263 291.583Z" fill="#D3F2D1"/>
<path d="M692.713 342.879C693.501 342.887 694.288 342.896 695.1 342.904C697.036 342.925 698.971 342.955 700.907 342.993C700.96 345.296 700.992 347.599 701.02 349.902C701.035 350.548 701.05 351.194 701.066 351.86C701.11 356.675 700.776 361.526 697.395 365.27C697.117 365.593 696.839 365.915 696.552 366.247C693.076 369.171 689.778 369.289 685.409 369.178C681.661 368.794 679.673 367.229 677.156 364.477C674.327 360.901 673.879 357.762 674.324 353.263C675.568 349.185 677.805 345.987 681.454 343.783C684.999 342.361 688.966 342.806 692.713 342.879Z" fill="#D3F2D1"/>
<path d="M719.254 318.032C722.718 319.887 725.062 323.003 726.282 326.681C726.81 331.127 726.632 335.119 723.866 338.764C720.835 342.125 717.861 343.374 713.331 343.786C708.796 343.388 705.111 341.645 702.117 338.16C699.968 334.686 699.794 330.653 700.304 326.681C701.389 322.93 703.742 320.374 706.95 318.223C710.586 317.011 715.541 316.96 719.254 318.032Z" fill="#D3F2D1"/>
</svg>
