<svg width="42" height="43" viewBox="0 0 42 43" fill="none" xmlns="http://www.w3.org/2000/svg">
<path d="M0.756836 0.4782C2.35621 0.447488 3.95553 0.424371 5.55513 0.410197C6.29794 0.403439 7.04057 0.394234 7.78326 0.379186C8.43089 0.36607 9.07839 0.357629 9.72616 0.354709C10.069 0.353003 10.4114 0.349021 10.7541 0.33943C12.8378 0.283324 12.8378 0.283324 13.3447 0.606472C13.651 0.905218 13.8315 1.23868 13.9829 1.63551C14.0702 1.8508 14.1975 2.02789 14.3355 2.21366C14.4167 2.33243 14.4978 2.4512 14.579 2.56998C15.0198 3.21459 15.4617 3.85837 15.9044 4.50167C16.0916 4.77373 16.2786 5.04588 16.4657 5.31801C16.5409 5.42739 16.6161 5.53676 16.6913 5.64613C21.6542 12.8648 21.6542 12.8648 21.7671 13.0291C21.8419 13.1379 21.9167 13.2466 21.9915 13.3554C22.1857 13.6379 22.3799 13.9205 22.5738 14.2033C22.6138 14.2616 22.6538 14.3199 22.6951 14.38C22.7709 14.4904 22.8466 14.6009 22.9223 14.7113C23.1587 15.0557 23.3997 15.3966 23.6434 15.7359C23.964 15.4236 24.2594 15.0961 24.5509 14.7567C24.5973 14.7029 24.6437 14.649 24.6915 14.5936C24.8345 14.4277 24.9773 14.2615 25.12 14.0953C25.1627 14.0456 25.2054 13.9958 25.2494 13.9446C25.5348 13.6124 25.8196 13.2797 26.1043 12.9469C26.653 12.3054 27.2033 11.6655 27.7566 11.028C28.2199 10.4939 28.6798 9.95685 29.1395 9.41955C29.6882 8.77812 30.2385 8.13817 30.7917 7.50068C31.255 6.96654 31.715 6.42953 32.1746 5.89223C32.7233 5.2508 33.2736 4.61085 33.8269 3.97336C34.3767 3.33947 34.922 2.70172 35.467 2.0637C35.5098 2.01369 35.5526 1.96368 35.5966 1.91215C35.6767 1.81858 35.7566 1.72495 35.8365 1.63126C35.9132 1.54164 35.9914 1.45337 36.0711 1.36638C36.2023 1.21593 36.2023 1.21593 36.3018 1.01963C36.4655 0.761984 36.5854 0.635203 36.8503 0.4782C37.4801 0.351804 38.1404 0.40916 38.7781 0.432057C38.9569 0.435764 39.1357 0.439132 39.3145 0.442151C39.7511 0.450258 40.1874 0.462585 40.6238 0.4782C40.5464 0.582516 40.4689 0.686705 40.3914 0.790842C40.3267 0.877893 40.3267 0.877893 40.2607 0.966703C40.0846 1.19545 39.894 1.40127 39.6958 1.61125C39.3382 1.99416 39.0038 2.39017 38.6752 2.79845C38.4837 3.02991 38.2842 3.25132 38.0808 3.47232C37.7433 3.83899 37.4269 4.21802 37.1141 4.60569C36.8778 4.8919 36.6283 5.16461 36.3783 5.43881C36.189 5.65184 36.0091 5.87041 35.8301 6.09218C35.5135 6.48366 35.1792 6.85454 34.8383 7.2249C34.5742 7.51906 34.3272 7.82544 34.0789 8.13301C33.8427 8.41922 33.5932 8.69193 33.3432 8.96613C33.1539 9.17916 32.9739 9.39773 32.795 9.6195C32.4783 10.011 32.1441 10.3819 31.8032 10.7522C31.5391 11.0464 31.292 11.3528 31.0438 11.6603C30.8657 11.8761 30.6814 12.0839 30.493 12.2906C30.2375 12.571 29.9932 12.8571 29.7547 13.1519C29.4584 13.5181 29.1488 13.8681 28.8315 14.2161C28.6422 14.4291 28.4622 14.6477 28.2833 14.8695C27.9667 15.2609 27.6324 15.6318 27.2915 16.0022C27.028 16.2956 26.7814 16.6011 26.5343 16.9084C26.2892 17.2044 26.0281 17.4841 25.7637 17.763C25.6001 17.9656 25.503 18.1054 25.4481 18.3609C25.5407 18.5817 25.5407 18.5817 25.7095 18.7967C25.8019 18.9263 25.8019 18.9263 25.896 19.0585C25.9299 19.1048 25.9637 19.1511 25.9985 19.1989C26.1454 19.4021 26.2864 19.6092 26.4277 19.8164C26.5421 19.984 26.6572 20.1511 26.7724 20.3181C27.0012 20.6498 27.2296 20.9819 27.4578 21.314C27.533 21.4234 27.6082 21.5327 27.6834 21.6421C29.3377 24.0484 30.992 26.4546 32.6463 28.8608C32.6835 28.9149 32.7207 28.9691 32.759 29.0248C32.8344 29.1344 32.9097 29.244 32.985 29.3535C33.1709 29.624 33.3568 29.8943 33.5428 30.1647C33.9945 30.8211 34.4449 31.4783 34.8947 32.136C35.2901 32.7142 35.6868 33.2916 36.084 33.8687C36.2711 34.1407 36.4582 34.4129 36.6453 34.685C36.7205 34.7944 36.7957 34.9038 36.8708 35.0131C37.9236 36.5444 38.9763 38.0756 40.029 39.6068C40.0663 39.661 40.1036 39.7152 40.142 39.7711C40.2167 39.8798 40.2915 39.9886 40.3661 40.0974C40.5606 40.3805 40.7556 40.6632 40.9516 40.9453C40.992 41.0036 41.0323 41.0619 41.074 41.122C41.1506 41.2326 41.2274 41.343 41.3044 41.4533C41.3394 41.5039 41.3744 41.5545 41.4104 41.6067C41.4408 41.6503 41.4711 41.6939 41.5024 41.7389C41.6569 41.9797 41.7948 42.2292 41.9362 42.4779C40.3397 42.5144 38.7433 42.5419 37.1464 42.5587C36.4049 42.5667 35.6636 42.5776 34.9222 42.5955C34.2756 42.6111 33.6292 42.6211 32.9824 42.6246C32.6401 42.6266 32.2984 42.6313 31.9563 42.6427C29.8826 42.7092 29.8826 42.7092 29.3343 42.3283C28.9868 41.9714 28.7707 41.5715 28.5751 41.1172C28.4283 40.8011 28.2261 40.5286 28.0218 40.2477C27.9478 40.1408 27.8741 40.0337 27.8007 39.9263C27.7645 39.8737 27.7283 39.8211 27.691 39.7669C27.5038 39.4949 27.3168 39.2227 27.1297 38.9506C27.0545 38.8412 26.9793 38.7318 26.9041 38.6225C25.2498 36.2162 23.5955 33.81 21.9413 31.4038C21.9041 31.3497 21.8668 31.2955 21.8285 31.2398C21.7532 31.1302 21.6779 31.0206 21.6025 30.911C21.4166 30.6406 21.2307 30.3703 21.0447 30.0999C20.817 29.769 20.5896 29.438 20.3622 29.1069C20.3192 29.0444 20.2762 28.9818 20.232 28.9174C19.6399 28.0552 19.0529 27.1899 18.4755 26.3179C17.9398 26.888 17.4189 27.4619 16.9287 28.0722C16.7529 28.2865 16.5704 28.492 16.3837 28.6968C16.1298 28.9753 15.8873 29.2596 15.6505 29.553C15.3339 29.9444 14.9997 30.3153 14.6588 30.6857C14.3947 30.9798 14.1476 31.2862 13.8994 31.5938C13.6632 31.88 13.4136 32.1527 13.1637 32.4269C12.9743 32.6399 12.7944 32.8585 12.6154 33.0803C12.2988 33.4718 11.9645 33.8426 11.6237 34.213C11.3595 34.5072 11.1125 34.8135 10.8642 35.1211C10.628 35.4073 10.3785 35.68 10.1285 35.9542C9.9392 36.1673 9.75925 36.3858 9.58026 36.6076C9.26366 36.9991 8.92939 37.37 8.58852 37.7403C8.32441 38.0345 8.07733 38.3409 7.8291 38.6484C7.59288 38.9346 7.34333 39.2074 7.09339 39.4816C6.90406 39.6946 6.72411 39.9131 6.54513 40.1349C6.22933 40.5254 5.89603 40.8954 5.55595 41.2648C5.27715 41.5753 5.01485 41.8973 4.75295 42.2222C4.61228 42.3959 4.61228 42.3959 4.53025 42.4779C4.41189 42.4855 4.29315 42.4876 4.17455 42.4872C4.06124 42.4872 4.06124 42.4872 3.94564 42.4872C3.86352 42.4868 3.78141 42.4864 3.6968 42.4859C3.61316 42.4858 3.52953 42.4857 3.44335 42.4856C3.17504 42.4851 2.90673 42.4841 2.63842 42.483C2.457 42.4826 2.27558 42.4823 2.09416 42.4819C1.64838 42.481 1.20261 42.4796 0.756836 42.4779C0.834941 42.3729 0.913171 42.2679 0.991453 42.163C1.035 42.1046 1.07855 42.0461 1.12342 41.9859C1.27349 41.7897 1.43459 41.6078 1.60278 41.4269C1.86366 41.1415 2.1134 40.8509 2.35643 40.5502C2.65269 40.184 2.96236 39.8341 3.2796 39.486C3.46892 39.273 3.64887 39.0544 3.82786 38.8327C4.14446 38.4412 4.47873 38.0703 4.8196 37.7C5.08372 37.4058 5.33079 37.0994 5.57902 36.7918C5.81524 36.5056 6.06479 36.2329 6.31474 35.9587C6.50406 35.7457 6.68401 35.5271 6.863 35.3054C7.1796 34.9139 7.51387 34.543 7.85473 34.1726C8.11885 33.8785 8.36593 33.5721 8.61416 33.2645C8.85038 32.9783 9.09993 32.7056 9.34987 32.4314C9.5392 32.2184 9.71915 31.9998 9.89813 31.778C10.2147 31.3865 10.549 31.0157 10.8899 30.6453C11.154 30.3511 11.4011 30.0448 11.6493 29.7372C11.8855 29.451 12.1351 29.1783 12.385 28.9041C12.5743 28.691 12.7543 28.4725 12.9333 28.2507C13.2499 27.8592 13.5841 27.4884 13.925 27.118C14.1891 26.8238 14.4362 26.5174 14.6844 26.2099C14.92 25.9244 15.1688 25.6524 15.4182 25.379C15.6808 25.0834 15.9281 24.7763 16.1751 24.4677C16.3427 24.2671 16.3427 24.2671 16.5333 24.0973C16.5787 24.045 16.6241 23.9928 16.6708 23.939C16.6207 23.5748 16.3964 23.3086 16.1889 23.0161C16.1062 22.8978 16.0235 22.7794 15.9408 22.6611C15.8985 22.6008 15.8561 22.5404 15.8124 22.4783C15.6181 22.2009 15.4268 21.9215 15.2353 21.6421C15.1601 21.5327 15.0849 21.4234 15.0097 21.314C14.2577 20.2203 13.5058 19.1265 12.7538 18.0328C12.7166 17.9786 12.6794 17.9245 12.6411 17.8688C12.5657 17.7592 12.4904 17.6496 12.4151 17.54C12.2292 17.2696 12.0433 16.9993 11.8573 16.7289C11.4056 16.0725 10.9552 15.4153 10.5054 14.7576C10.1099 14.1794 9.71325 13.602 9.31615 13.0249C9.12896 12.7529 8.9419 12.4807 8.75483 12.2086C8.67964 12.0992 8.60444 11.9898 8.52924 11.8805C6.87496 9.47423 5.22067 7.068 3.56639 4.66177C3.51058 4.58059 3.51058 4.58059 3.45364 4.49776C3.3783 4.38819 3.30298 4.27862 3.22765 4.16904C3.04176 3.89863 2.85583 3.62825 2.66982 3.35793C2.52199 3.14309 2.37429 2.92818 2.22666 2.71322C2.05119 2.4577 1.87526 2.20251 1.69923 1.94738C1.60213 1.80629 1.50504 1.66519 1.40795 1.52409C1.36197 1.4576 1.31598 1.39111 1.26861 1.3226C1.20419 1.22883 1.20419 1.22883 1.13847 1.13316C1.1004 1.07794 1.06232 1.02272 1.0231 0.965818C0.921768 0.807681 0.839524 0.646643 0.756836 0.4782ZM5.84274 3.26724C5.93355 3.41069 6.02446 3.55408 6.11541 3.69744C6.16602 3.7773 6.21664 3.85716 6.26878 3.93943C6.46193 4.23944 6.66546 4.53073 6.87325 4.8207C6.95905 4.94137 7.04482 5.06207 7.13056 5.18279C7.19692 5.27609 7.19692 5.27609 7.26462 5.37128C7.49967 5.70282 7.73243 6.03595 7.96528 6.36903C8.03722 6.47188 8.03722 6.47188 8.11062 6.57681C8.20827 6.71642 8.30592 6.85605 8.40355 6.99567C8.64358 7.33887 8.88378 7.68194 9.12397 8.02502C9.21967 8.16174 9.31537 8.29846 9.41107 8.43518C9.48213 8.53669 9.48213 8.53669 9.55463 8.64025C9.69818 8.84533 9.84174 9.05041 9.98529 9.25548C10.0326 9.32314 10.08 9.3908 10.1288 9.4605C10.2246 9.59742 10.3205 9.73433 10.4163 9.87125C10.6534 10.21 10.8906 10.5488 11.128 10.8874C11.6929 11.6938 12.2561 12.5015 12.8182 13.31C13.3156 14.0253 13.815 14.7392 14.3151 15.4528C14.5535 15.7932 14.7919 16.1337 15.0302 16.4742C15.1259 16.6109 15.2216 16.7476 15.3173 16.8843C15.5087 17.1578 15.7001 17.4312 15.8915 17.7046C15.9389 17.7723 15.9862 17.84 16.035 17.9097C16.1309 18.0466 16.2267 18.1835 16.3225 18.3204C16.5597 18.6592 16.7968 18.998 17.0342 19.3366C17.5992 20.143 18.1624 20.9506 18.7244 21.7591C19.2218 22.4745 19.7212 23.1884 20.2213 23.9019C20.4598 24.2423 20.6981 24.5828 20.9364 24.9233C21.0321 25.0601 21.1278 25.1968 21.2235 25.3335C21.4149 25.6069 21.6063 25.8804 21.7977 26.1538C21.8451 26.2215 21.8924 26.2891 21.9412 26.3588C22.0371 26.4957 22.1329 26.6327 22.2287 26.7696C22.4659 27.1084 22.7031 27.4471 22.9404 27.7858C23.5054 28.5922 24.0686 29.3998 24.6306 30.2083C25.128 30.9236 25.6274 31.6376 26.1275 32.3511C26.366 32.6915 26.6043 33.032 26.8426 33.3725C26.9383 33.5092 27.034 33.6459 27.1297 33.7827C27.7039 34.603 28.2781 35.4233 28.8524 36.2436C28.8998 36.3113 28.9472 36.3791 28.9961 36.4489C29.0912 36.5849 29.1864 36.7208 29.2816 36.8568C29.5287 37.21 29.7761 37.5631 30.0239 37.9159C30.1005 38.0251 30.1005 38.0251 30.1786 38.1365C30.2753 38.2744 30.3721 38.4122 30.4689 38.5499C30.5132 38.6131 30.5575 38.6763 30.6032 38.7414C30.6605 38.823 30.6605 38.823 30.719 38.9063C30.8621 39.1147 30.8621 39.1147 30.9439 39.2998C31.0601 39.5301 31.1598 39.6819 31.3543 39.8529C31.7705 39.9577 32.1794 39.9391 32.6046 39.925C32.7271 39.9237 32.8497 39.9226 32.9722 39.9219C33.2935 39.9191 33.6146 39.9118 33.9358 39.9036C34.2641 39.8961 34.5924 39.8927 34.9207 39.889C35.564 39.8811 36.2072 39.8685 36.8503 39.8529C36.7587 39.7082 36.6669 39.5635 36.5751 39.4188C36.524 39.3382 36.4729 39.2577 36.4202 39.1746C36.2581 38.9225 36.0886 38.6801 35.9121 38.4379C35.5421 37.9259 35.1803 37.4085 34.8201 36.8896C34.4007 36.2856 33.9807 35.682 33.5589 35.0798C33.4888 34.9797 33.4888 34.9797 33.4173 34.8777C33.3235 34.7438 33.2297 34.6099 33.1358 34.476C32.8973 34.1356 32.659 33.795 32.4207 33.4545C32.325 33.3178 32.2293 33.1811 32.1336 33.0444C31.9422 32.771 31.7508 32.4975 31.5594 32.2241C31.512 32.1564 31.4646 32.0888 31.4158 32.0191C31.32 31.8821 31.2242 31.7452 31.1283 31.6083C30.8912 31.2695 30.654 30.9308 30.4167 30.5921C29.8517 29.7857 29.2885 28.9781 28.7265 28.1696C28.2291 27.4543 27.7296 26.7403 27.2296 26.0268C26.9911 25.6864 26.7528 25.3459 26.5145 25.0054C26.4188 24.8687 26.3231 24.7319 26.2274 24.5952C26.036 24.3218 25.8446 24.0484 25.6532 23.7749C25.6058 23.7073 25.5584 23.6396 25.5096 23.5699C25.4138 23.433 25.318 23.2961 25.2221 23.1591C24.985 22.8204 24.7478 22.4816 24.5105 22.143C23.9455 21.3366 23.3823 20.5289 22.8203 19.7204C22.3229 19.0051 21.8234 18.2912 21.3234 17.5776C21.0849 17.2372 20.8466 16.8967 20.6083 16.5562C20.5126 16.4195 20.4169 16.2828 20.3212 16.1461C19.7469 15.3258 19.1727 14.5054 18.5985 13.6851C18.5275 13.5837 18.5275 13.5837 18.455 13.4801C18.3592 13.3432 18.2633 13.2063 18.1675 13.0694C17.9304 12.7306 17.6932 12.3918 17.4559 12.0532C16.8909 11.2468 16.3277 10.4392 15.7656 9.63067C15.2682 8.91531 14.7688 8.20139 14.2688 7.48786C13.9828 7.07978 13.6971 6.67154 13.4115 6.26329C13.1643 5.9101 12.9169 5.55706 12.6692 5.20426C12.5926 5.09505 12.5926 5.09505 12.5145 4.98364C12.4178 4.84581 12.321 4.70802 12.2242 4.57028C12.1577 4.47551 12.1577 4.47551 12.0899 4.37882C12.0517 4.3244 12.0134 4.26997 11.9741 4.2139C11.831 4.00552 11.831 4.00552 11.7492 3.82041C11.633 3.59008 11.5332 3.43826 11.3388 3.26724C10.9226 3.16247 10.5136 3.1811 10.0885 3.19515C9.96595 3.19652 9.84343 3.19757 9.72091 3.19831C9.39957 3.20112 9.07848 3.20836 8.75724 3.21655C8.42899 3.22412 8.1007 3.22748 7.77238 3.23119C7.12905 3.2391 6.48593 3.25168 5.84274 3.26724Z" fill="#2D3B66"/>
</svg>
